<svg width="40" height="40" viewBox="0 0 40 40" fill="none" xmlns="http://www.w3.org/2000/svg">
  <path d="M8.6999 9.35725C11.7174 6.3453 15.5026 4.86133 20.0001 4.86133C20.2791 4.86133 20.5333 5.02113 20.6539 5.27228C20.7744 5.52342 20.7399 5.82133 20.5651 6.03837C19.4728 7.3946 18.8111 9.08925 18.8111 10.9689V11.1425C18.8111 11.4927 18.56 11.7926 18.2148 11.8547C16.5946 12.1463 15.1937 12.8845 14.0227 14.0799L14.0213 14.0814C12.4639 15.6622 11.6774 17.7274 11.6774 20.3183C11.6774 22.9093 12.4639 24.9745 14.0213 26.5553C15.5849 28.1425 17.5683 28.9442 20.0001 28.9442C22.4319 28.9442 24.4152 28.1425 25.9789 26.5553C27.5362 24.9745 28.3227 22.9093 28.3227 20.3183C28.3227 19.9432 28.2959 19.5638 28.2666 19.1542C28.2421 18.8127 28.4608 18.5009 28.7905 18.4068C30.8292 17.8254 32.5278 16.4232 33.5105 14.5673C33.6437 14.3159 33.912 14.1657 34.1963 14.1832C34.4806 14.2008 34.7283 14.383 34.8293 14.6488C35.5011 16.4166 35.8334 18.328 35.8334 20.3473C35.8334 24.6772 34.3079 28.3351 31.3003 31.3373C28.2828 34.3493 24.4976 35.8332 20.0001 35.8332C15.5026 35.8332 11.7174 34.3493 8.6999 31.3373C5.69222 28.3351 4.16675 24.6772 4.16675 20.3473C4.16675 16.0173 5.69222 12.3594 8.6999 9.35725Z" fill="#0D47A1"/>
  <path d="M26.6988 16.9608C30.2382 16.9608 33.1075 14.0967 33.1075 10.5637C33.1075 7.03078 30.2382 4.16675 26.6988 4.16675C23.1593 4.16675 20.29 7.03078 20.29 10.5637C20.29 14.0967 23.1593 16.9608 26.6988 16.9608Z" fill="#FFBC00"/>
</svg>
