<svg width="107" height="32" viewBox="0 0 107 32" fill="none" xmlns="http://www.w3.org/2000/svg">
<path d="M66.9405 0C66.0219 0 65.2208 0.341149 64.5644 1.0036C63.9079 1.66604 63.5699 2.47447 63.5699 3.40148C63.5699 4.3285 63.9079 5.13693 64.5644 5.79937C65.2208 6.46182 66.0219 6.80297 66.9405 6.80297C67.8591 6.80297 68.6602 6.46182 69.3167 5.79937C69.9731 5.13693 70.3112 4.3285 70.3112 3.40148C70.3112 2.47447 69.9731 1.66604 69.3167 1.0036C68.6602 0.341148 67.8591 0 66.9405 0Z" fill="#0D47A1"/>
<path d="M64.6648 9.14284C64.3684 9.14284 64.1281 9.38534 64.1281 9.68448V31.1117C64.1281 31.4108 64.3684 31.6533 64.6648 31.6533H69.1304C69.4268 31.6533 69.6671 31.4108 69.6671 31.1117V9.68448C69.6671 9.38534 69.4268 9.14284 69.1304 9.14284H64.6648Z" fill="#0D47A1"/>
<path fill-rule="evenodd" clip-rule="evenodd" d="M39.2884 1.21329C39.2884 0.914151 39.5287 0.671652 39.8251 0.671652H44.2907C44.5871 0.671652 44.8274 0.914151 44.8274 1.21329V11.8037C46.5315 9.84129 48.6573 8.81788 51.2037 8.81788C54.1983 8.81788 56.7594 9.86916 58.8786 11.9623C61.0161 14.0734 62.0671 16.8647 62.0671 20.2789C62.0671 23.6933 61.0164 26.5213 58.9102 28.7154L58.9062 28.7195C56.7971 30.8705 54.3231 31.9783 51.5043 31.9783C49.0323 31.9783 46.8181 31.025 44.8274 29.1906V31.1117C44.8274 31.4108 44.5871 31.6533 44.2907 31.6533H39.8251C39.5287 31.6533 39.2884 31.4108 39.2884 31.1117V1.21329ZM50.5811 13.8443C48.9526 13.8443 47.5937 14.4499 46.4706 15.7026L46.4675 15.7061C45.325 16.9584 44.763 18.5118 44.763 20.4306C44.763 22.3507 45.3254 23.876 46.4585 25.0589L46.4617 25.0623C47.5859 26.2564 48.9274 26.8436 50.5382 26.8436C52.1509 26.8436 53.5436 26.2544 54.7594 25.0677C55.9494 23.9061 56.5495 22.3646 56.5495 20.4523C56.5495 18.5178 55.9485 16.9446 54.7867 15.7126L54.7837 15.7094C53.6169 14.4522 52.2123 13.8443 50.5811 13.8443Z" fill="#0D47A1"/>
<path d="M37.688 8.99334C37.7903 9.09403 37.8486 9.23175 37.8499 9.37597L37.8929 13.9257C37.8945 14.0934 37.819 14.2524 37.6885 14.3562C37.558 14.46 37.3872 14.497 37.226 14.4563C37.223 14.4556 37.2134 14.4536 37.1943 14.4524C37.1743 14.451 37.1536 14.4509 37.12 14.4509C35.0336 14.4509 33.5552 15.118 32.5632 16.4079C31.5409 17.7371 31.0013 19.5576 31.0013 21.9255V31.1116C31.0013 31.4108 30.761 31.6533 30.4646 31.6533H25.9776C25.6811 31.6533 25.4408 31.4108 25.4408 31.1116V9.68444C25.4408 9.3853 25.6811 9.1428 25.9776 9.1428H30.4431C30.7396 9.1428 30.9799 9.3853 30.9799 9.68444V12.1949C31.5759 11.4494 32.2787 10.8007 33.0823 10.255C34.4072 9.3336 35.8179 8.863 37.3048 8.83955C37.4477 8.8373 37.5856 8.89265 37.688 8.99334Z" fill="#0D47A1"/>
<path d="M74.0897 2.94653C74.0897 2.64739 74.33 2.40489 74.6264 2.40489H79.092C79.3884 2.40489 79.6287 2.64739 79.6287 2.94653V9.14286H84.674C84.9704 9.14286 85.2107 9.38536 85.2107 9.6845V13.3026C85.2107 13.6018 84.9704 13.8443 84.674 13.8443H79.6502V24.1787C79.6502 25.1086 79.8847 25.7828 80.3017 26.2373L80.3067 26.2429L80.3082 26.2445C80.7253 26.716 81.2985 26.9736 82.1406 26.9736C82.911 26.9736 83.6816 26.5996 84.5002 25.7332C84.6165 25.6101 84.7834 25.5493 84.9508 25.569C85.1183 25.5887 85.2668 25.6866 85.3519 25.8335L87.1983 29.0183C87.3266 29.2397 87.2835 29.5215 87.0949 29.6936C85.4403 31.2032 83.5762 31.9783 81.518 31.9783C79.4663 31.9783 77.7227 31.2508 76.2712 29.8326C74.7931 28.3883 74.0897 26.4377 74.0897 24.0704V13.8443H71.9428C71.6464 13.8443 71.4061 13.6018 71.4061 13.3026V9.6845C71.4061 9.38536 71.6464 9.14286 71.9428 9.14286H74.0897V2.94653Z" fill="#0D47A1"/>
<path fill-rule="evenodd" clip-rule="evenodd" d="M97.0187 8.83949C93.6332 8.83949 90.5748 9.92146 87.9047 12.0546C87.6802 12.2339 87.6347 12.5595 87.8013 12.7944L89.7979 15.611C89.9672 15.8498 90.2943 15.909 90.5353 15.7444C92.5972 14.3362 94.5336 13.6709 96.3746 13.6709C97.8717 13.6709 98.8949 14.0136 99.5417 14.6015C100.178 15.1797 100.54 16.0778 100.54 17.3974V17.6574H95.2797C92.5711 17.6574 90.374 18.2124 88.713 19.3299C86.997 20.4844 86.1553 22.2479 86.1553 24.5037C86.1553 26.743 86.9178 28.5915 88.5121 29.9638C90.0833 31.3162 92.0374 31.9783 94.3565 31.9783C96.9486 31.9783 99.1395 31.1866 100.883 29.5963V31.1116C100.883 31.4108 101.123 31.6533 101.42 31.6533H105.52C105.817 31.6533 106.057 31.4108 106.057 31.1116V17.3107C106.057 14.4762 105.229 12.2785 103.473 10.8653C101.788 9.49094 99.5975 8.83949 97.0187 8.83949ZM91.6944 24.3737C91.6944 23.528 92.0132 22.9444 92.6503 22.5415C93.3293 22.1121 94.4167 21.8605 95.9882 21.8605H100.475V23.1387C100.475 24.3348 100.017 25.2568 99.1019 25.9547C98.1248 26.6837 96.9931 27.0602 95.6876 27.0602C94.3352 27.0602 93.3387 26.7906 92.6645 26.3325C92.0224 25.8755 91.6944 25.2437 91.6944 24.3737Z" fill="#0D47A1"/>
<path d="M3.35609 12.183C5.59006 9.92864 8.3924 8.8179 11.7221 8.8179C11.9287 8.8179 12.1169 8.93752 12.2061 9.12549C12.2954 9.31347 12.2698 9.53646 12.1404 9.69891C11.3317 10.714 10.8419 11.9825 10.8419 13.3893V13.5193C10.8419 13.7814 10.656 14.0059 10.4004 14.0524C9.20085 14.2707 8.16373 14.8231 7.2968 15.7179L7.29573 15.719C6.14277 16.9022 5.56049 18.448 5.56049 20.3873C5.56049 22.3266 6.14277 23.8724 7.29573 25.0556C8.45337 26.2436 9.92176 26.8436 11.7221 26.8436C13.5225 26.8436 14.9908 26.2436 16.1485 25.0556C17.3014 23.8724 17.8837 22.3266 17.8837 20.3873C17.8837 20.1065 17.8639 19.8225 17.8422 19.5159C17.8241 19.2603 17.9859 19.0269 18.2301 18.9565C19.7394 18.5214 20.9969 17.4718 21.7245 16.0827C21.823 15.8946 22.0217 15.7821 22.2322 15.7952C22.4427 15.8084 22.626 15.9447 22.7008 16.1437C23.1982 17.4669 23.4442 18.8975 23.4442 20.409C23.4442 23.6499 22.3148 26.3878 20.0881 28.6349C17.8542 30.8893 15.0518 32 11.7221 32C8.3924 32 5.59006 30.8893 3.35609 28.6349C1.12937 26.3878 0 23.6499 0 20.409C0 17.168 1.12937 14.4301 3.35609 12.183Z" fill="#0D47A1"/>
<path d="M16.6814 17.874C19.3018 17.874 21.4261 15.7303 21.4261 13.0859C21.4261 10.4415 19.3018 8.29785 16.6814 8.29785C14.061 8.29785 11.9368 10.4415 11.9368 13.0859C11.9368 15.7303 14.061 17.874 16.6814 17.874Z" fill="#FFBC00"/>
</svg>
